<?xml version="1.0" encoding="UTF-8"?>
<svg width="32px" height="42px" viewBox="0 0 32 42" version="1.1" xmlns="http://www.w3.org/2000/svg" xmlns:xlink="http://www.w3.org/1999/xlink">
    <!-- Generator: Sketch 47.1 (45422) - http://www.bohemiancoding.com/sketch -->
    <title>Top Bottom</title>
    <desc>Created with Sketch.</desc>
    <defs></defs>
    <g id="Page-1" stroke="none" stroke-width="1" fill="none" fill-rule="evenodd">
        <g id="A4" transform="translate(-308.000000, -265.000000)" fill-rule="nonzero">
            <g id="Top-Bottom" transform="translate(287.000000, 249.000000)">
                <g id="Group-3">
                    <g id="Group-2" transform="translate(19.000000, 15.000000)">
                        <path d="M12.7379334,0.0713384775 C11.9886529,0.0713384775 11.3819823,0.945554379 11.3819823,1.69610517 L11.3819823,2.33923105 C11.3819823,2.87017655 11.6877383,3.32697285 12.1296657,3.54928747 C12.1230278,3.63726589 12.1169542,3.72610032 12.1169542,3.81584811 L12.1169542,16.5979002 C11.9163426,16.9764417 11.7208911,17.3706907 11.5086624,17.761416 L0.54210331,37.6309413 C-1.22389687,40.8827187 2.13676397,43.6475646 4.11583916,43.6475646 L31.5567131,43.6475646 C33.5357054,43.6475646 36.9324595,40.9488728 35.130449,37.6309413 L24.1647196,17.761416 C23.9524909,17.3706492 23.7570394,16.9764085 23.556427,16.5979002 L23.556427,3.81584894 C23.556427,3.7261078 23.5503699,3.63727337 23.5437238,3.54928747 C23.9856553,3.32690636 24.291403,2.87013499 24.291403,2.33923105 L24.291403,1.69610517 C24.291403,0.945588453 23.6889517,0.0713384775 22.9396877,0.0713384775 L12.7379334,0.0713384775 Z" id="rect2985"></path>
                        <g id="g3213" transform="translate(2.576648, 1.212229)" fill="#2241B2">
                            <path d="M13.1521901,14.9182903 L17.3840053,14.9182903 C19.0677019,14.9182903 19.6185259,16.4897816 20.4230668,17.9796317 L29.9798293,35.6766787 C31.9100788,39.2508838 28.6243292,40.8231874 26.9406326,40.8231874 L3.59515724,40.8231874 C1.91146064,40.8231874 -1.16396206,38.8614973 0.556095684,35.6766787 L10.1128582,17.9796317 C10.9174262,16.4897816 11.4683583,14.9182903 13.1519197,14.9182903 L13.1521901,14.9182903 Z" id="path3201"></path>
                            <rect id="rect3203" x="10.9218598" y="1.60793251" width="8.68206792" height="15.9356012"></rect>
                            <rect id="rect3205" transform="translate(15.256067, 0.909112) rotate(-90.000000) translate(-15.256067, -0.909112) " x="14.3596773" y="-4.20388679" width="1.79278003" height="10.2259984" rx="0.896390016"></rect>
                        </g>
                        <path d="M21.9574388,24.8661798 L27.6096812,35.6283939 C28.847091,37.9844411 26.7216974,39 25.6186963,39 L10.3246146,39 C9.22161357,39 7.20228362,37.7124142 8.33362979,35.6283939 L13.8752001,25.4204569 C18.7744209,27.3453997 20.5562911,21.9950243 21.9575617,24.8662414 L21.9574388,24.8661798 Z" id="path3201-1" fill="#FFFFFF"></path>
                    </g>
                </g>
            </g>
        </g>
    </g>
</svg>