<?xml version="1.0" encoding="UTF-8"?>
<svg width="119px" height="98px" viewBox="0 0 119 98" version="1.1" xmlns="http://www.w3.org/2000/svg" xmlns:xlink="http://www.w3.org/1999/xlink">
    <!-- Generator: Sketch 47.1 (45422) - http://www.bohemiancoding.com/sketch -->
    <title>Doctor bag</title>
    <desc>Created with Sketch.</desc>
    <defs>
        <rect id="path-1" x="-7.10542736e-15" y="0" width="119" height="81.6666667" rx="18"></rect>
    </defs>
    <g id="Page-1" stroke="none" stroke-width="1" fill="none" fill-rule="evenodd">
        <g id="A4" transform="translate(-238.000000, -248.000000)">
            <g id="Doctor-bag" transform="translate(238.000000, 248.000000)">
                <g id="Group" transform="translate(59.500000, 49.000000) scale(-1, 1) rotate(-180.000000) translate(-59.500000, -49.000000) ">
                    <path d="M48.8033349,97.8471798 C44.2993705,97.23048 39.7954061,94.6943154 36.9029419,91.137182 C34.6986436,88.4341075 32.8725657,83.858173 32.8725657,80.9892723 C32.8725657,78.9744304 33.4653637,79.1164123 25.4999791,79.1164123 C21.3276347,79.1164123 17.9138985,79.0210352 17.1791324,78.855209 C13.9073642,78.1919044 10.1858498,75.4411413 8.50282365,72.4541031 C7.07989168,69.9645432 6.79487179,68.1393718 6.79487179,61.9517806 C6.79487179,55.7641893 6.81871376,55.6926565 8.78567609,52.9418934 C10.8480063,50.0491484 14.3571104,47.2517806 18.5294547,45.1654059 C23.0572611,42.8893608 27.7270356,41.7036496 33.1326599,41.4901349 L36.5940801,41.3481531 L36.7598901,42.7939836 C37.3050042,47.7015704 39.8896902,52.7511391 43.7531727,56.4264101 C46.0289969,58.5843176 47.2622768,59.4372926 50.0355311,60.7649856 C60.44255,65.6964167 73.1730769,62.04499 79.4792773,52.3241097 C81.3281136,49.4313647 82.6795196,45.8037823 83.0588237,42.5793851 L83.2007917,41.3470692 L86.6622119,41.4890511 C93.5839686,41.7990268 99.676675,43.7434196 105.176583,47.4176067 C107.570534,49.0303473 110.558366,52.0639903 111.838246,54.2218978 L112.881874,56.0004645 L112.9534,61.596284 C113.024926,67.9030967 112.835274,69.2784782 111.50771,71.9804689 C110.630975,73.7828799 108.259783,76.3190445 106.552915,77.3150852 C103.779661,78.9278257 103.423115,78.9744304 94.8660162,79.1174961 L87.0425997,79.2356337 L86.8767896,81.2504756 C86.3316756,88.6476222 81.0214192,95.0021234 73.5296227,97.2781685 L71.3957666,97.9414731 L60.8467797,97.9891617 C55.0380094,98.013006 49.6085432,97.9414731 48.8033349,97.8471798 Z M70.5894746,90.4966379 C73.6954328,89.9037823 76.895675,87.5562044 78.3652072,84.8065251 C79.0761313,83.5026764 79.7881392,80.8711347 79.8108974,79.6615793 L79.8108974,79.1164123 L59.8974359,79.1164123 L39.9839744,79.1164123 L39.9839744,79.7797169 C39.9839744,80.9892723 40.6948985,83.4549878 41.4296646,84.8292856 C42.8525965,87.4608273 46.123281,89.9026985 49.0157452,90.4717098 C50.5091193,90.7816855 69.0484165,90.7816855 70.5894746,90.4966379 Z" id="Shape" fill="#2241B2" fill-rule="nonzero"></path>
                    <path d="M6.79487179,30.5846273 C6.79487179,17.8767087 6.89023967,11.4040699 7.05604971,10.5510949 C8.02815175,5.80933422 12.1766541,1.56505198 16.9894804,0.380424685 C18.9575264,-0.117053749 100.887197,-0.117053749 102.806475,0.380424685 C105.224267,0.99712453 107.074187,2.06361424 108.993466,3.96031851 C110.961512,5.90471135 112.241392,8.15691219 112.738822,10.5510949 C112.904632,11.4051537 113,17.8767087 113,30.5846273 L113,49.3619996 L111.175006,47.6311214 C106.789167,43.4345278 100.057063,40.0443044 93.1580644,38.5507852 C91.5931643,38.2191329 89.5546761,38.0294625 87.017674,37.9340854 L83.1769498,37.7921035 L83.0349817,36.4405662 C82.1582475,28.7117673 76.5629712,21.3384649 69.1665426,18.1845167 C65.6585222,16.6671533 64.3071162,16.40595 59.8974359,16.40595 C55.2276614,16.40595 53.3072993,16.8329794 49.5847012,18.6581509 C42.7572287,22.02453 38.0874542,28.3551869 36.8064903,36.0135368 L36.5214704,37.744415 L32.8465563,37.8863968 C28.840022,38.052223 25.7113056,38.59739 22.1545175,39.7831011 C17.1303647,41.4435302 11.9393182,44.4544127 8.61986604,47.6311214 L6.79487179,49.3619996 L6.79487179,30.5846273 Z" id="Shape" fill="#2241B2" fill-rule="nonzero"></path>
                    <g id="Rectangle">
                        <use fill="#FFFFFF" fill-rule="evenodd" xlink:href="#path-1"></use>
                        <rect stroke="#2241B2" stroke-width="6" x="3" y="3" width="113" height="75.6666667" rx="18"></rect>
                    </g>
                    <polygon id="Shape" fill="#CD3121" fill-rule="nonzero" points="54.7210204 47.9472462 54.7210204 43.2054855 49.9320361 43.1577969 45.1192098 43.0862641 45.0476839 38.2968149 45 33.4835213 49.8594265 33.4835213 54.718853 33.4835213 54.718853 28.7417607 54.718853 24 59.4623208 24 64.2036211 24 64.2036211 28.7417607 64.2036211 33.4835213 69.0630476 33.4835213 73.9224741 33.4835213 73.8747902 38.2968149 73.8032643 43.0862641 69.01428 43.1577969 64.2014537 43.2054855 64.2014537 47.9472462 64.2014537 52.6890069 59.4623208 52.6890069 54.7210204 52.6890069"></polygon>
                </g>
            </g>
        </g>
    </g>
</svg>